<svg width="32" height="32" viewBox="0 0 32 32" fill="none" xmlns="http://www.w3.org/2000/svg">
<path fill-rule="evenodd" clip-rule="evenodd" d="M0 16C0 7.16344 7.16344 0 16 0C24.8366 0 32 7.16344 32 16C32 24.8366 24.8366 32 16 32C7.16344 32 0 24.8366 0 16Z" fill="black"/>
<path fill-rule="evenodd" clip-rule="evenodd" d="M21.2604 23.7893C21.2604 23.7893 20.5732 22.9784 20.0006 22.2619C22.5011 21.5642 23.4555 20.0179 23.4555 20.0179C22.6729 20.527 21.9284 20.8853 21.2604 21.1304C20.306 21.5264 19.3898 21.7904 18.4926 21.9413C16.6602 22.2807 14.9805 22.1864 13.5489 21.9224C12.4609 21.715 11.5256 21.4133 10.743 21.1116C10.3039 20.9419 9.82675 20.7344 9.34955 20.4704C9.32092 20.4516 9.29229 20.4374 9.26365 20.4233L9.26364 20.4233C9.23501 20.4092 9.20638 20.395 9.17776 20.3762C9.13958 20.3573 9.12049 20.3385 9.10141 20.3196C8.75783 20.131 8.56695 19.999 8.56695 19.999C8.56695 19.999 9.48316 21.5076 11.9073 22.2241C11.3347 22.9407 10.6284 23.7893 10.6284 23.7893C6.41002 23.6573 4.80664 20.923 4.80664 20.923C4.80664 14.8511 7.55529 9.92941 7.55529 9.92941C10.3039 7.89286 12.919 7.94943 12.919 7.94943L13.1099 8.17571C9.67404 9.15628 8.08975 10.646 8.08975 10.646C8.08975 10.646 8.50968 10.4197 9.21593 10.0991C11.2583 9.21285 12.8808 8.96771 13.5489 8.91113L13.5917 8.90399C13.688 8.88779 13.7734 8.87342 13.8734 8.87342C15.0377 8.72257 16.3548 8.68485 17.7291 8.83571C19.5425 9.04313 21.4894 9.57113 23.4746 10.646C23.4746 10.646 21.9666 9.2317 18.7217 8.25114L18.9889 7.94943C18.9889 7.94943 21.6039 7.89286 24.3526 9.92941C24.3526 9.92941 27.1012 14.8511 27.1012 20.923C27.1012 20.923 25.4788 23.6573 21.2604 23.7893ZM12.9229 15.3251C11.8435 15.3251 10.9913 16.2958 10.9913 17.4802C10.9913 18.6645 11.8624 19.6352 12.9229 19.6352C14.0024 19.6352 14.8546 18.6645 14.8546 17.4802C14.8735 16.2958 14.0024 15.3251 12.9229 15.3251ZM17.9045 17.4802C17.9045 16.2958 18.7567 15.3251 19.8361 15.3251C20.9156 15.3251 21.7678 16.2958 21.7678 17.4802C21.7678 18.6645 20.9156 19.6352 19.8361 19.6352C18.7756 19.6352 17.9045 18.6645 17.9045 17.4802Z" fill="white"/>
</svg>
