<svg height="32" width="32" fill="currentColor" viewBox="0 0 24 24"><path d="M20.727 6.125S18.226 4.218 15.273 4l-.266.519c2.669.637 3.894 1.548 5.175 2.668C17.974 6.09 15.796 5.063 12 5.063c-3.796 0-5.974 1.028-8.182 2.125 1.28-1.12 2.738-2.133 5.175-2.668L8.727 4c-3.098.284-5.454 2.125-5.454 2.125S.479 10.07 0 17.813C2.815 20.974 7.09 21 7.09 21l.895-1.16c-1.518-.514-3.23-1.432-4.712-3.09 1.766 1.302 4.432 2.656 8.727 2.656 4.296 0 6.961-1.354 8.727-2.656-1.48 1.658-3.193 2.576-4.712 3.09l.894 1.16s4.277-.025 7.091-3.188c-.48-7.742-3.273-11.687-3.273-11.687ZM8.455 15.688c-1.055 0-1.91-.951-1.91-2.126 0-1.174.855-2.124 1.91-2.124 1.054 0 1.909.95 1.909 2.124 0 1.175-.855 2.126-1.91 2.126Zm7.09 0c-1.054 0-1.909-.951-1.909-2.126 0-1.174.855-2.124 1.91-2.124 1.054 0 1.909.95 1.909 2.124 0 1.175-.855 2.126-1.91 2.126Z"/></svg>