<svg width="56" height="56" viewBox="0 0 56 56" fill="currentColor" xmlns="http://www.w3.org/2000/svg">
<path fill-rule="evenodd" clip-rule="evenodd" d="M28.0002 0C12.5382 0 0 12.8527 0 28.7086C0 41.3931 8.02293 52.1546 19.1483 55.9507C20.5476 56.2165 21.0614 55.3278 21.0614 54.5696C21.0614 53.885 21.0354 51.6234 21.0233 49.2245C13.2337 50.9612 11.59 45.8372 11.59 45.8372C10.3162 42.5189 8.48103 41.6365 8.48103 41.6365C5.94057 39.8547 8.67253 39.8913 8.67253 39.8913C11.4842 40.0934 12.9647 42.8498 12.9647 42.8498C15.4621 47.2388 19.5149 45.9699 21.1129 45.2363C21.3642 43.3813 22.0897 42.1138 22.8905 41.3973C16.6713 40.6714 10.1335 38.2097 10.1335 27.2092C10.1335 24.0748 11.2274 21.5138 13.0185 19.5032C12.7278 18.7798 11.7694 15.8602 13.2898 11.9057C13.2898 11.9057 15.641 11.1341 20.9918 14.8485C23.2253 14.2124 25.6207 13.8934 28.0002 13.8825C30.3798 13.8934 32.777 14.2124 35.0147 14.8485C40.359 11.1341 42.707 11.9057 42.707 11.9057C44.2311 15.8602 43.2723 18.7798 42.9814 19.5032C44.7769 21.5138 45.8631 24.0748 45.8631 27.2092C45.8631 38.2359 39.3129 40.6639 33.078 41.3746C34.0823 42.2655 34.9771 44.0127 34.9771 46.6911C34.9771 50.532 34.9447 53.6235 34.9447 54.5696C34.9447 55.3336 35.4487 56.2287 36.868 55.9468C47.9873 52.1465 56 41.3889 56 28.7086C56 12.8527 43.4637 0 28.0002 0Z" fill="currentColor"/>
</svg>
