<svg height="32" width="32" fill="currentColor" viewBox="0 0 24 24"><path d="M22.286 5.805a8.9 8.9 0 0 1-2.43.656 4.141 4.141 0 0 0 1.855-2.295 8.508 8.508 0 0 1-2.674 1.005 4.257 4.257 0 0 0-3.08-1.314c-2.336 0-4.215 1.866-4.215 4.154 0 .329.028.645.097.947a12 12 0 0 1-8.692-4.344 4.132 4.132 0 0 0-.578 2.1c0 1.437.752 2.712 1.874 3.45a4.215 4.215 0 0 1-1.906-.511v.045c0 2.018 1.462 3.694 3.379 4.08a4.272 4.272 0 0 1-1.106.137c-.27 0-.542-.015-.798-.07a4.25 4.25 0 0 0 3.94 2.892 8.558 8.558 0 0 1-5.228 1.77c-.346 0-.678-.014-1.01-.056a12.009 12.009 0 0 0 6.47 1.863c7.76 0 12.003-6.33 12.003-11.816 0-.183-.006-.36-.015-.537a8.343 8.343 0 0 0 2.114-2.156Z"/></svg>