<svg height="32" width="32" fill="currentColor" viewBox="0 0 24 24"><path d="M11.088 10.986c1.349-1.264 3.009-1.824 4.919-1.92-.109-1.121-.52-2.069-1.188-2.914-1.853-2.338-5.277-3.319-8.324-2.357C4.262 4.5 2.619 5.852 1.95 8.082c-.723 2.41.243 4.75 2.536 6.314.357.244.41.453.294.827-.11.352-.186.714-.269 1.103a34.16 34.16 0 0 1-.118.542c.216-.13.422-.257.621-.38.5-.306.96-.588 1.434-.847.2-.109.48-.136.716-.117.488.04.973.101 1.482.165.205.026.414.053.628.078-.17-1.94.452-3.504 1.814-4.781ZM6.371 7.464c.47.013.865.41.847.851-.018.452-.42.807-.9.795-.484-.012-.851-.383-.837-.847.014-.458.41-.813.89-.8Zm4.571.838c-.008-.442.39-.83.861-.838.48-.009.869.354.872.813.005.469-.363.832-.849.837-.484.006-.875-.353-.884-.812Zm8.807 12.005c.18.092.361.184.548.265-.013-.05-.023-.101-.032-.15-.02-.103-.04-.201-.086-.284-.378-.666-.166-1.081.423-1.586 2.034-1.744 2.23-4.5.563-6.576-1.91-2.38-5.881-2.952-8.59-1.237-3.047 1.93-3.423 5.54-.79 7.894 1.386 1.238 3.065 1.743 4.94 1.558.254-.025.508-.096.761-.166.36-.1.715-.199 1.061-.164.408.041.8.24 1.202.446Zm-5.619-6.834c-.014.367-.331.658-.716.658-.382 0-.701-.297-.715-.663-.014-.383.32-.714.72-.712a.703.703 0 0 1 .711.717Zm3.015-.058a.701.701 0 0 1 .706-.658.694.694 0 0 1 .696.717c-.014.371-.319.653-.705.652a.687.687 0 0 1-.697-.711Z"/></svg>