<svg height="32" width="32" fill="currentColor" viewBox="0 0 24 24"><path d="M23.5 2.58a2.937 2.937 0 0 0-.777-1.318A3.023 3.023 0 0 0 21.378.5C19.505 0 12 0 12 0S4.493 0 2.624.492a3.02 3.02 0 0 0-1.347.765c-.372.367-.64.823-.775 1.323C0 4.414 0 8.243 0 8.243s0 3.829.502 5.663c.137.498.405.953.777 1.318a3.02 3.02 0 0 0 1.345.762c1.87.492 9.376.492 9.376.492s7.507 0 9.378-.492a3.023 3.023 0 0 0 1.345-.763c.372-.365.64-.819.777-1.317.5-1.834.5-5.663.5-5.663s-.006-3.83-.5-5.663ZM9.6 11.77V4.714l6.235 3.529L9.6 11.77Z" fill="#fff"/></svg>