<?xml version="1.0" encoding="UTF-8"?><svg xmlns="http://www.w3.org/2000/svg" viewBox="0 0 960 960"><defs><style>.cls-1{fill:#transparent;}.cls-2{fill:transparent;stroke-miterlimit:10;}</style></defs><g id="Layer_4"><rect class="cls-2" x="-1.04" width="960" height="960"/></g><g id="Complete"><g><path class="cls-1" d="M564.01,417.71v-8.43c0-9.74-5.92-16.28-14.73-16.28s-14.33,5.47-15.75,15.42l-1.08,7.8c-15.85,4.49-25.25,17.25-27.94,37.95l-12.86,103.32c-3.55,.75-7.46,1.12-11.65,1.12s-8.1-.38-11.65-1.12l-12.86-103.34c-2.69-20.69-12.09-33.45-27.94-37.94l-1.09-7.81c-1.42-9.94-7.01-15.41-15.75-15.41s-14.73,6.54-14.73,16.28v8.43c-14.52,5.21-22.49,17.73-22.49,35.45v130.7h27.36v-162.6c4.01-1.14,8.46-1.71,13.25-1.71,3.64,0,6.51,.2,9.05,.65l13.9,107.2c2.34,18.18,11.38,29.62,26.88,34.02l1.62,12.72c.92,7.69,6.73,12.86,14.45,12.86s13.49-4.93,14.45-12.84l1.62-12.75c15.3-4.44,24.58-16.16,26.87-34l13.9-107.21c2.54-.45,5.41-.65,9.05-.65,4.79,0,9.24,.58,13.25,1.71v162.6h27.36v-130.7c0-17.73-7.97-30.24-22.49-35.45Zm-168.03,161.28h-17.61v-125.83c0-15.01,6.07-25.39,17.61-30.23v156.06Zm18.13-164.31c-4.72,0-9.17,.52-13.25,1.54v-6.94c0-7.04,3.77-11.41,9.85-11.41s9.86,3.78,10.92,11.22l.84,6.07c-2.43-.33-5.13-.48-8.37-.48Zm27.78,112.1l-13.64-105.24c12.73,4.44,20.08,15.35,22.4,33.23l12.61,101.33c-12.23-4.25-19.42-14.09-21.37-29.32Zm47.72,46.78c-.65,5.44-4.16,8.57-9.61,8.57s-8.97-3.28-9.61-8.58l-1.4-10.97c3.43,.6,7.11,.91,11.01,.91s7.58-.31,11.01-.91l-1.4,10.99Zm28.5-46.78c-1.95,15.16-9.13,25.01-21.37,29.31l12.61-101.3c2.33-17.89,9.67-28.8,22.4-33.24l-13.64,105.24Zm41.03-110.56c-4.09-1.02-8.53-1.54-13.25-1.54-3.24,0-5.94,.15-8.37,.48l.84-6.06c1.07-7.45,4.74-11.23,10.92-11.23s9.85,4.37,9.85,11.41v6.94Zm22.49,162.77h-17.61v-156.06c11.54,4.84,17.61,15.22,17.61,30.23v125.83Z"/><path class="cls-1" d="M837.97,338.78c-19.57-46.26-47.58-87.81-83.26-123.49-15.46-15.46-32.03-29.47-49.6-41.99-3.38-2.41-6.8-4.74-10.25-7.04,.14-1,.25-2,.32-3.01,.72-9.66-1.71-19.41-7.2-27.77-1.71-2.6-3.66-4.98-5.81-7.12-1.89-1.89-3.93-3.59-6.1-5.09-3.73-2.58-7.85-4.59-12.2-5.93,3.46-1.63,6.57-3.87,9.21-6.57,1.4-1.43,2.66-3,3.77-4.67,3.31-5,5.24-10.98,5.24-17.42,0-17.46-14.21-31.67-31.67-31.67-14.65,0-27.01,10.01-30.61,23.54-.54,2.02-.88,4.13-1,6.29-.03,.61-.06,1.22-.06,1.84,0,12.73,7.55,23.72,18.41,28.75-6.39,2.02-12.25,5.47-17.14,10.09-9.14-3.54-18.39-6.72-27.72-9.54-1.62-.49-3.25-.97-4.88-1.44-34.72-9.98-70.69-15.03-107.43-15.03-52.45,0-103.32,10.27-151.22,30.53-29.98,12.68-57.97,28.93-83.68,48.5-2.34,1.78-4.66,3.59-6.96,5.42-10.98,8.76-21.53,18.14-31.62,28.14-4.35-3.48-9.32-6.11-14.65-7.75,7.46-3.51,13.33-9.85,16.24-17.63,.62-1.67,1.1-3.42,1.43-5.21,.35-1.89,.56-3.83,.56-5.82,0-17.46-14.21-31.67-31.67-31.67s-31.67,14.21-31.67,31.67c0,6.49,1.97,12.52,5.34,17.55,1,1.49,2.13,2.89,3.36,4.19,2.75,2.91,6.04,5.31,9.72,7.01-9.66,3.05-18.11,9.34-23.83,18.07-8.28,12.62-9.64,28.42-3.64,42.26l9.69,22.33c-9.6,15.87-18.07,32.45-25.36,49.69-18.93,44.75-29.13,92.1-30.4,140.89-.04,1.67-.08,3.35-.1,5.03-.02,1.77-.04,3.53-.04,5.3,0,14.43,.78,28.74,2.33,42.9,.18,1.64,.37,3.28,.57,4.91,4.35,35.59,13.59,70.21,27.63,103.41,19.57,46.26,47.58,87.81,83.26,123.49s77.23,63.69,123.49,83.26c38.31,16.2,78.53,26.01,119.93,29.29,2.12,.17,4.25,.32,6.38,.46,8.26,.52,16.57,.78,24.92,.78,52.45,0,103.32-10.27,151.22-30.53,10.7-4.52,21.13-9.52,31.31-14.94,1.55-.82,3.09-1.66,4.63-2.5,32.03-17.61,61.38-39.64,87.55-65.82,19.52-19.52,36.72-40.8,51.52-63.64,.91-1.4,1.81-2.82,2.7-4.23,11.12-17.66,20.83-36.22,29.03-55.62,9.52-22.5,16.83-45.65,21.91-69.32,.4-1.87,.78-3.74,1.16-5.62,4.96-24.93,7.47-50.42,7.47-76.29,0-52.45-10.27-103.32-30.53-151.22Zm-214.2-250.11c0-1.64,.16-3.24,.44-4.8,.39-2.12,1.03-4.16,1.89-6.07,4.17-9.3,13.51-15.8,24.34-15.8,14.7,0,26.67,11.96,26.67,26.67,0,4.06-.91,7.9-2.54,11.35-.89,1.88-1.99,3.64-3.28,5.25-4.89,6.13-12.42,10.07-20.85,10.07-14.7,0-26.67-11.96-26.67-26.67Zm-2.47,44.7c1.23-1.36,2.55-2.64,3.95-3.81,7.03-5.89,15.97-9.23,25.43-9.23,10.13,0,19.67,3.82,26.91,10.53,2.34,2.17,4.44,4.63,6.24,7.37,.21,.32,.4,.65,.6,.97,3.23,5.24,5.15,11.04,5.73,16.97,.22,2.33,.24,4.67,.05,7.01-.05,.61-.12,1.21-.19,1.81-.16,1.22-.35,2.43-.62,3.63-.54,2.42-1.32,4.81-2.32,7.13l-26.52,61.14c-1.71,3.93-5.58,6.47-9.86,6.47s-8.16-2.54-9.86-6.47l-26.51-61.14c-5.33-12.3-4.13-26.33,3.23-37.53,1.14-1.73,2.41-3.35,3.78-4.86ZM160.96,197.79c-1.41-1.23-2.7-2.6-3.83-4.1-3.36-4.46-5.36-10.01-5.36-16.02,0-14.71,11.96-26.67,26.67-26.67s26.67,11.96,26.67,26.67c0,2.23-.28,4.4-.8,6.47-.46,1.85-1.12,3.63-1.95,5.3-4.36,8.81-13.44,14.89-23.92,14.89-6.68,0-12.79-2.48-17.48-6.55Zm-18.67,66.98c-5.33-12.3-4.13-26.33,3.23-37.53,7.35-11.2,19.75-17.89,33.15-17.89,8.96,0,17.45,3,24.3,8.33,1.31,1.02,2.57,2.13,3.75,3.32,1.88,1.89,3.6,3.97,5.09,6.25,7.35,11.21,8.56,25.24,3.23,37.53l-26.52,61.14c-1.71,3.93-5.58,6.47-9.86,6.47s-8.16-2.54-9.86-6.47l-15.79-36.41-2.42-5.58-8.31-19.15Zm-15.65,75.97c6.73-15.91,14.49-31.24,23.21-45.97l14.37,33.13c2.5,5.76,8.17,9.48,14.45,9.48s11.95-3.72,14.45-9.48l26.52-61.14c6-13.85,4.65-29.65-3.64-42.26-1.69-2.57-3.62-4.93-5.74-7.05,11.61-11.49,23.84-22.16,36.65-31.99,20.61-1.08,41.3-1.33,61.11-1.57,23.34-.28,45.39-.55,65.92-2.01h0c35.35-2.52,69.2-3.27,94.68,14.89,11.47,8.18,19.24,19.16,21.86,30.91,3.88,17.33-4.09,43.38-30.75,59.59-21.11,12.84-47.35,16.36-70.5,19.47-23.57,3.17-50.29,6.76-72.38,20.36-19.77,12.18-33.83,31.09-47.43,49.38-7.2,9.68-14.64,19.69-22.82,28.55-23.94,25.91-57.09,45.78-104.35,62.55-16.48,5.84-31.68,9.68-45.58,11.52,1.33-47.92,11.39-94.42,29.98-138.37ZM452.97,872.56c-42.23-2.92-83.24-12.7-122.25-29.2-45.67-19.32-86.68-46.97-121.9-82.19-35.22-35.22-62.87-76.23-82.19-121.9-13.84-32.71-22.95-66.84-27.25-101.91,7.83-.63,15.81-.96,23.84-.96,20.79,0,41.95,2.15,61.92,6.63,27.59,6.19,50.13,16.42,65.17,29.58,.18,.16,.37,.33,.55,.49-9.6,5.45-16.09,15.75-16.09,27.56,0,12.73,7.55,23.72,18.41,28.75-9.66,3.05-18.11,9.34-23.83,18.07-8.28,12.62-9.64,28.42-3.64,42.26l26.51,61.14c2.5,5.76,8.17,9.48,14.45,9.48s11.95-3.72,14.45-9.48l26.52-61.14c6-13.85,4.65-29.65-3.64-42.26-5.79-8.81-14.34-15.14-24.12-18.15,5.87-2.76,10.74-7.28,13.97-12.86,5.79,4.78,12.02,8.98,18.97,12.14,14.11,6.4,29.69,7.81,44.77,9.17,6.63,.6,13.48,1.22,20.07,2.26,9.68,1.53,41.81,8.45,48.8,33.49,3.45,12.35-.35,24.89-4.38,38.18-1.57,5.16-3.19,10.5-4.33,15.8-6.42,29.85,12.11,39.84,30.02,49.5,18.91,10.2,36.77,19.83,29.55,52.27-3.12,14.01-11.1,28.19-24.34,43.29Zm-186.54-245.23c-14.7,0-26.67-11.96-26.67-26.67,0-10.52,6.12-19.63,14.99-23.97,1.65-.81,3.4-1.45,5.22-1.9,2.07-.52,4.23-.79,6.46-.79,14.7,0,26.67,11.96,26.67,26.67,0,2.63-.39,5.18-1.1,7.58-.51,1.71-1.19,3.36-2.01,4.91-4.49,8.42-13.36,14.17-23.55,14.17Zm.23,5c13.4,0,25.79,6.69,33.15,17.89,7.35,11.21,8.56,25.24,3.23,37.53l-26.52,61.14c-1.71,3.93-5.58,6.47-9.86,6.47s-8.16-2.54-9.86-6.47l-26.51-61.14c-5.33-12.3-4.13-26.33,3.23-37.53,7.35-11.2,19.75-17.89,33.15-17.89Zm484.51,128.84c-26.18,26.18-55.56,48.17-87.67,65.67-1.75-1.93-3.37-3.95-4.82-6.05-11.02-15.97-13.26-36.81-13.97-53.18-.48-10.98-.38-23.79,2.79-35.75l11.72,27.03c2.5,5.76,8.17,9.48,14.45,9.48s11.95-3.72,14.45-9.48l26.52-61.14c1.79-4.13,2.91-8.44,3.41-12.79,14.74-1.07,29.92,.04,43.67,2.51,13.84,2.48,27.41,6.46,39.86,11.6-14.51,22.27-31.33,43.04-50.39,62.11Zm-77.51-120.84c13.4,0,25.79,6.69,33.15,17.89,4.4,6.7,6.58,14.42,6.5,22.17-.02,1.68-.14,3.36-.38,5.04-.49,3.51-1.44,6.98-2.89,10.32l-26.52,61.14c-1.71,3.93-5.58,6.47-9.86,6.47s-8.16-2.54-9.86-6.47l-13.97-32.21-2.71-6.26-9.83-22.67c-5.33-12.3-4.13-26.33,3.23-37.53,7.35-11.2,19.75-17.89,33.15-17.89Zm-.23-5c-14.7,0-26.67-11.96-26.67-26.67s11.96-26.67,26.67-26.67,26.67,11.96,26.67,26.67-11.96,26.67-26.67,26.67Zm159.93,3.94c-8.2,19.39-17.92,37.92-29.06,55.55-13.53-5.65-27.89-9.79-41.71-12.27-13.91-2.5-29.27-3.61-44.27-2.57,0-8.57-2.45-17.08-7.32-24.49-5.79-8.81-14.34-15.14-24.12-18.15,10.76-5.07,18.23-16.01,18.23-28.67,0-17.46-14.21-31.67-31.67-31.67s-31.67,14.21-31.67,31.67c0,12.73,7.55,23.72,18.41,28.75-9.66,3.05-18.11,9.34-23.83,18.07-8.28,12.62-9.64,28.42-3.64,42.26l11.74,27.06c-5.06,14.18-5.3,29.87-4.73,43.02,.75,17.04,3.11,38.79,14.86,55.8,1.34,1.94,2.82,3.81,4.4,5.62-9.66,5.1-19.55,9.82-29.69,14.11-47.28,20-97.5,30.14-149.27,30.14-6.95,0-13.87-.19-20.77-.55,12.32-14.68,19.86-28.65,22.97-42.59,8.04-36.13-13.27-47.62-32.06-57.75-17.78-9.59-33.13-17.87-27.5-44.05,1.1-5.09,2.69-10.33,4.22-15.4,4.06-13.38,8.26-27.22,4.41-40.97-7.8-27.91-42.42-35.44-52.84-37.09-6.75-1.06-13.69-1.69-20.4-2.3-14.66-1.32-29.82-2.69-43.15-8.75-6.93-3.14-13.07-7.35-18.82-12.21,1.32-3.48,2.04-7.25,2.04-11.18,0-17.46-14.21-31.67-31.67-31.67-3.73,0-7.3,.65-10.63,1.84-.73-.67-1.46-1.33-2.21-1.99-15.67-13.71-38.96-24.32-67.37-30.69-28.18-6.32-58.75-8.05-87.42-5.71-1.54-14.01-2.31-28.17-2.31-42.45,0-1.95,.02-3.91,.05-5.86,14.47-1.85,30.27-5.8,47.36-11.86,48.05-17.04,81.85-37.34,106.36-63.87,8.36-9.05,15.89-19.17,23.16-28.96,13.31-17.91,27.08-36.43,46.04-48.11,21.18-13.04,47.34-16.56,70.42-19.66,23.64-3.18,50.43-6.78,72.43-20.16,11.22-6.83,20.76-16.7,26.86-27.81,6.73-12.26,8.87-25.11,6.18-37.15-2.89-12.96-11.36-24.99-23.84-33.89-26.83-19.13-61.63-18.4-97.93-15.81-20.38,1.45-42.36,1.72-65.63,2-17.5,.21-35.68,.43-53.91,1.22,23.74-17.35,49.37-31.91,76.68-43.46,47.28-20,97.5-30.14,149.27-30.14,36.01,0,71.26,4.91,105.3,14.62-15.41,34.99-17.04,74.08-4.4,107.55,13.67,36.22,44.21,64.39,79.73,73.52,3.6,.93,7.32,1.69,10.91,2.42,10.26,2.1,19.96,4.08,27.99,9.69,11.15,7.79,22.08,27.26,16.21,56.48-2.17,10.8-6.05,21.43-9.8,31.71-3.58,9.8-7.28,19.94-9.57,30.36-9.35,42.48,6.71,89.87,39.96,117.92,23.1,19.49,48.81,29.22,77.01,29.22,13.14,0,26.83-2.12,41.04-6.35-4.98,22.39-11.99,44.31-21.01,65.64Zm22.2-71.17c-1.53,.48-3.05,.94-4.57,1.37-42.09,11.94-79.58,4.36-111.45-22.53-31.87-26.88-47.26-72.3-38.3-113.02,2.22-10.09,5.86-20.07,9.39-29.72,3.82-10.46,7.76-21.27,10.01-32.44,2.33-11.57,2.2-23.62-.36-33.92-2.98-11.99-9.16-21.54-17.88-27.64-8.88-6.2-19.54-8.38-29.85-10.49-3.53-.72-7.19-1.47-10.67-2.37-33.96-8.73-63.2-35.73-76.3-70.45-12.24-32.45-10.56-70.42,4.57-104.37,8.82,2.64,17.55,5.61,26.2,8.9-1.07,1.28-2.07,2.63-3,4.04-8.28,12.62-9.64,28.42-3.64,42.26l26.51,61.14c2.5,5.76,8.17,9.48,14.45,9.48s11.95-3.72,14.45-9.48l26.52-61.14c.88-2.04,1.59-4.12,2.15-6.22,20.5,13.79,39.68,29.58,57.39,47.29,35.22,35.22,62.87,76.23,82.19,121.9,20,47.28,30.14,97.5,30.14,149.27,0,26.5-2.66,52.6-7.94,78.11Z"/></g></g></svg>
