<svg width="179" height="133" viewBox="0 0 179 133" fill="none" xmlns="http://www.w3.org/2000/svg">
<path d="M14.4932 25.2785C14.4932 20.5955 18.3374 16.7513 23.0203 16.7513H155.82C160.503 16.7513 164.347 20.5955 164.347 25.2785" stroke="#2D2D2D" stroke-width="0.786291" stroke-miterlimit="10"/>
<path d="M152.254 76.3947C151.392 76.3947 150.53 76.3947 149.668 76.3947C149.668 71.2458 149.668 66.1202 149.668 60.9713C149.481 60.9247 149.318 60.8782 149.132 60.8549C148.642 60.785 148.176 60.785 147.687 60.8549C147.571 60.8782 147.547 60.8781 147.547 60.9946C147.501 61.3208 147.478 61.6237 147.431 61.9499C147.361 62.509 147.291 63.0915 147.198 63.6506C147.128 64.1166 147.081 64.5826 147.012 65.0485C146.918 65.7009 146.848 66.3532 146.755 67.0056C146.685 67.5647 146.616 68.1239 146.546 68.7063C146.476 69.2655 146.406 69.8247 146.336 70.3838C146.289 70.6867 146.266 70.9896 146.219 71.2924C146.103 71.9448 145.87 72.5505 145.474 73.0864C145.078 73.6223 144.542 73.9717 143.913 74.1814H143.89C143.75 74.2047 143.703 74.2979 143.703 74.4144C143.657 74.8105 143.61 75.2298 143.54 75.6259C143.424 76.255 142.911 76.6277 142.235 76.651C141.956 76.651 141.676 76.6044 141.443 76.4413C141.094 76.2317 140.907 75.9055 140.838 75.5094C140.768 75.1366 140.721 74.7872 140.698 74.4144C140.674 74.2746 140.628 74.2047 140.488 74.1581C140.069 74.0183 139.673 73.8086 139.346 73.5291C138.927 73.1796 138.624 72.7136 138.438 72.2011C138.275 71.7817 138.182 71.339 138.112 70.8731C138.042 70.3838 137.972 69.8712 137.925 69.382C137.879 68.9626 137.832 68.5666 137.762 68.1472C137.692 67.588 137.622 67.0289 137.553 66.4464C137.483 65.9805 137.436 65.4912 137.366 65.0019C137.296 64.4428 137.203 63.8603 137.133 63.3012C137.063 62.8352 137.017 62.3459 136.947 61.8567C136.9 61.5305 136.877 61.2276 136.83 60.9014C136.83 60.8316 136.807 60.785 136.714 60.7617C136.085 60.6918 135.456 60.6918 134.827 60.8549C134.803 60.8549 134.78 60.8781 134.733 60.8781C134.733 60.8781 134.71 60.8781 134.71 60.9014C134.71 66.027 134.71 71.1527 134.71 76.2783C134.594 76.3016 132.287 76.3249 132.124 76.2783C132.124 76.2317 132.124 76.1851 132.124 76.1385C132.124 71.9681 132.124 67.821 132.124 63.6506C132.124 62.8585 132.357 62.1363 132.846 61.5072C133.172 61.0878 133.592 60.8083 134.081 60.5986C134.128 60.5753 134.174 60.552 134.244 60.5287C134.244 60.2724 134.244 60.0394 134.244 59.8064C134.244 59.5502 134.267 59.2706 134.384 59.0376C134.594 58.5483 134.943 58.2688 135.479 58.2222C135.898 58.1756 136.271 58.2455 136.597 58.525C136.877 58.758 137.04 59.0842 137.11 59.4337C137.156 59.6666 137.18 59.9229 137.226 60.1559C137.226 60.2258 137.25 60.319 137.25 60.3889C137.436 60.4588 137.622 60.5287 137.785 60.5986C138.321 60.8549 138.764 61.2276 139.113 61.7169C139.44 62.2061 139.673 62.742 139.789 63.3245C139.882 63.7671 139.929 64.2098 139.999 64.6292C140.069 65.2116 140.162 65.8174 140.232 66.3998C140.278 66.8192 140.325 67.2153 140.372 67.6346C140.441 68.2404 140.535 68.8461 140.605 69.4286C140.674 69.9411 140.721 70.4304 140.791 70.943C140.861 71.5254 140.931 72.1079 141.001 72.6903C141.047 73.0165 141.071 73.3427 141.117 73.6689C141.117 73.6922 141.117 73.7155 141.14 73.7621C141.863 73.9018 142.585 73.9018 143.33 73.7621C143.354 73.599 143.377 73.4592 143.4 73.2961C143.47 72.6903 143.563 72.0846 143.633 71.4555C143.703 70.943 143.75 70.4304 143.82 69.9411C143.913 69.2888 143.983 68.6132 144.076 67.9608C144.146 67.4482 144.192 66.959 144.262 66.4464C144.356 65.7941 144.425 65.1184 144.519 64.4661C144.565 64.1166 144.612 63.7671 144.682 63.4177C144.798 62.8119 145.008 62.2527 145.334 61.7402C145.753 61.1111 146.336 60.6685 147.058 60.4355C147.105 60.4122 147.175 60.3889 147.245 60.3656C147.268 60.1559 147.314 59.9462 147.338 59.7365C147.384 59.457 147.431 59.1774 147.571 58.8978C147.804 58.4551 148.153 58.2222 148.642 58.1756C148.969 58.129 149.295 58.1756 149.598 58.3619C149.947 58.5716 150.134 58.8978 150.203 59.2706C150.227 59.4337 150.25 59.62 150.25 59.7831C150.25 60.0161 150.25 60.2491 150.25 60.5054C150.297 60.5287 150.343 60.552 150.413 60.5753C151.298 60.948 151.904 61.6004 152.184 62.5323C152.324 62.9517 152.37 63.3944 152.37 63.837C152.37 67.9142 152.37 71.9914 152.37 76.0919C152.254 76.255 152.254 76.3016 152.254 76.3947ZM134.174 61.1577C134.128 61.181 134.104 61.181 134.081 61.181C133.452 61.4839 133.009 61.9732 132.753 62.6488C132.59 63.1148 132.52 63.604 132.52 64.0933C132.52 67.0755 132.52 70.0576 132.52 73.0631C132.52 73.9717 132.52 74.8571 132.52 75.7657C132.52 75.8123 132.52 75.8822 132.52 75.9288C133.079 75.9288 133.615 75.9288 134.174 75.9288C134.174 70.9896 134.174 66.0736 134.174 61.1577ZM151.788 75.9055C151.788 75.8356 151.788 75.7657 151.788 75.6958C151.788 72.271 151.788 68.8228 151.788 65.398C151.788 64.8621 151.764 64.3263 151.764 63.7671C151.764 63.4643 151.718 63.1614 151.648 62.8818C151.462 62.2061 151.089 61.6703 150.483 61.2975C150.367 61.2276 150.273 61.181 150.134 61.1111C150.134 66.0503 150.134 70.9663 150.134 75.8822C150.693 75.9055 151.229 75.9055 151.788 75.9055ZM137.296 61.0179C137.296 61.0878 137.296 61.1344 137.296 61.1577C137.366 61.6237 137.413 62.113 137.483 62.5789C137.553 63.208 137.646 63.837 137.739 64.4661C137.809 64.9553 137.855 65.4446 137.925 65.9339C137.995 66.493 138.065 67.0522 138.158 67.6113C138.228 68.1006 138.275 68.5666 138.345 69.0558C138.438 69.6849 138.508 70.3139 138.601 70.943C138.648 71.339 138.741 71.7118 138.88 72.0846C139.16 72.7602 139.626 73.2728 140.278 73.599C140.372 73.6456 140.465 73.6689 140.581 73.7155C140.581 73.6689 140.581 73.6456 140.581 73.6223C140.535 73.2495 140.488 72.8767 140.441 72.5272C140.395 72.1079 140.348 71.7118 140.302 71.2924C140.232 70.7799 140.162 70.2906 140.115 69.7781C140.069 69.3587 139.999 68.916 139.952 68.4967C139.882 67.9841 139.812 67.4948 139.766 66.9823C139.719 66.5629 139.673 66.1202 139.603 65.7009C139.533 65.2116 139.486 64.6991 139.416 64.2098C139.346 63.7205 139.253 63.2313 139.067 62.7886C138.834 62.2061 138.508 61.7169 137.972 61.3674C137.762 61.2276 137.529 61.1111 137.296 61.0179ZM143.773 73.7155C143.796 73.7155 143.82 73.7155 143.82 73.7155C144.262 73.5524 144.635 73.2961 144.961 72.9466C145.404 72.4574 145.614 71.8516 145.73 71.1993C145.777 70.8731 145.823 70.5469 145.87 70.2207C145.94 69.7315 146.01 69.2422 146.056 68.7529C146.126 68.287 146.173 67.7977 146.243 67.3317C146.313 66.7726 146.383 66.1901 146.476 65.631C146.546 65.165 146.592 64.6758 146.662 64.1865C146.732 63.6972 146.802 63.1847 146.848 62.6954C146.895 62.276 146.965 61.88 147.012 61.4606C147.035 61.3208 147.035 61.181 147.058 61.0179C147.012 61.0179 146.988 61.0412 146.965 61.0412C146.546 61.2043 146.196 61.4606 145.893 61.7868C145.544 62.1829 145.334 62.6488 145.171 63.1614C145.031 63.6273 144.985 64.0933 144.915 64.5593C144.822 65.2582 144.752 65.9572 144.658 66.6561C144.565 67.4249 144.472 68.2171 144.379 68.9859C144.286 69.6616 144.216 70.3139 144.146 70.9896C144.029 71.8749 143.913 72.7369 143.82 73.6223C143.773 73.6689 143.773 73.6922 143.773 73.7155ZM141.14 74.3911C141.14 74.461 141.14 74.5542 141.164 74.6241C141.187 74.8804 141.234 75.1599 141.257 75.4162C141.327 76.022 141.793 76.3249 142.352 76.2084C142.748 76.1385 143.004 75.8589 143.051 75.4395C143.074 75.323 143.074 75.2065 143.097 75.09C143.121 74.8571 143.144 74.6241 143.191 74.3911C142.515 74.4843 141.839 74.4843 141.14 74.3911ZM136.714 60.3889C136.667 60.086 136.621 59.7831 136.551 59.5036C136.504 59.3172 136.411 59.1308 136.271 59.0143C135.992 58.758 135.642 58.7114 135.293 58.8279C134.943 58.9444 134.78 59.2007 134.71 59.5502C134.664 59.853 134.687 60.1559 134.687 60.4588C134.687 60.4588 134.687 60.4821 134.71 60.4821C135.362 60.319 136.015 60.319 136.714 60.3889ZM149.644 60.4821C149.644 60.2258 149.644 59.9695 149.644 59.7365C149.644 59.62 149.621 59.5269 149.598 59.4104C149.551 59.2007 149.435 59.0376 149.248 58.9211C148.736 58.5716 148.037 58.8046 147.804 59.3871C147.734 59.5734 147.687 59.7831 147.664 59.9695C147.641 60.1093 147.641 60.2258 147.617 60.3656C148.316 60.319 148.969 60.319 149.644 60.4821Z" fill="#2D2D2D"/>
<path d="M142.073 82.2659C150.346 82.2659 157.053 75.5588 157.053 67.2852C157.053 59.0115 150.346 52.3044 142.073 52.3044C133.799 52.3044 127.092 59.0115 127.092 67.2852C127.092 75.5588 133.799 82.2659 142.073 82.2659Z" stroke="#2D2D2D" stroke-width="0.786291" stroke-miterlimit="10"/>
<path d="M14.4912 25.2785V112.344C14.4912 114.65 16.3784 116.514 18.6616 116.514H162.388C164.695 116.514 166.559 114.627 166.559 112.344V29.4722C166.559 27.1657 164.671 25.3018 162.388 25.3018H29.5651C24.8822 25.3018 21.038 21.6673 21.038 16.9844" stroke="#2D2D2D" stroke-width="0.786291" stroke-miterlimit="10"/>
<path d="M23.9033 32.5709H25.4876" stroke="#2D2D2D" stroke-width="0.786291" stroke-miterlimit="10"/>
<path d="M28.75 32.5709H37.7431" stroke="#2D2D2D" stroke-width="0.786291" stroke-miterlimit="10" stroke-dasharray="1.63 1.63"/>
<path d="M38.5586 32.5709H152.044" stroke="#2D2D2D" stroke-width="0.786291" stroke-miterlimit="10" stroke-dasharray="3.27 3.27"/>
<path d="M152.858 32.5709H154.443" stroke="#2D2D2D" stroke-width="0.786291" stroke-miterlimit="10"/>
<path d="M23.9033 109.292H25.4876" stroke="#2D2D2D" stroke-width="0.786291" stroke-miterlimit="10"/>
<path d="M28.75 109.292H37.7431" stroke="#2D2D2D" stroke-width="0.786291" stroke-miterlimit="10" stroke-dasharray="1.63 1.63"/>
<path d="M38.5586 109.292H152.044" stroke="#2D2D2D" stroke-width="0.786291" stroke-miterlimit="10" stroke-dasharray="3.27 3.27"/>
<path d="M152.858 109.292H154.443" stroke="#2D2D2D" stroke-width="0.786291" stroke-miterlimit="10"/>
<path d="M152.766 56.7777H166.814" stroke="#2D2D2D" stroke-width="0.786291" stroke-miterlimit="10"/>
<path d="M152.766 78.0723H166.814" stroke="#2D2D2D" stroke-width="0.786291" stroke-miterlimit="10"/>
</svg>
