<svg width="289" height="82" viewBox="0 0 289 82" fill="none" xmlns="http://www.w3.org/2000/svg">
<g clip-path="url(#clip0_2_92)">
<path d="M44.9268 81.8309C43.4154 81.8747 41.9444 81.339 40.8153 80.3335C39.6862 79.328 38.9844 77.9289 38.8537 76.4228L38.1703 71.0667C31.6612 69.212 27.8533 64.3961 26.8639 56.7493L21.0057 11.6232C19.749 11.421 18.477 11.3296 17.2044 11.3499C15.3206 11.3345 13.4437 11.5776 11.626 12.0723V80.5097H0.13092V25.4982C0.13092 18.0336 3.48313 12.7621 9.58869 10.569V7.02213C9.58869 2.92213 12.0817 0.169273 15.7854 0.169273C19.4891 0.169273 21.8128 2.47308 22.4117 6.67721L22.8673 9.96372C29.5522 11.8315 33.4577 17.2005 34.6163 25.9147L40.0319 69.4137C43.2674 70.0385 46.5926 70.0385 49.8282 69.4137L55.2437 25.9212C56.3763 17.2005 60.3274 11.8315 66.9927 9.94419L67.4484 6.65769C68.0472 2.47308 70.4035 0.14975 74.0747 0.14975C77.7458 0.14975 80.2714 2.90261 80.2714 7.0026V10.5494C86.3769 12.7426 89.7291 18.014 89.7291 25.4786V80.4902H78.221V12.0658C76.4033 11.571 74.5264 11.328 72.6427 11.3434C71.37 11.3231 70.098 11.4145 68.8413 11.6167L62.9831 56.7493C62.0132 64.2594 58.1143 69.1924 51.6767 71.0667L51.0323 76.4293C50.9318 77.9523 50.2341 79.3741 49.0907 80.3856C47.9474 81.3971 46.451 81.9165 44.9268 81.8309ZM40.2988 71.5874L40.8911 76.2015C40.9532 77.2133 41.4117 78.1598 42.1672 78.8359C42.9226 79.512 43.9141 79.8632 44.9268 79.8134C45.4306 79.8495 45.9365 79.7842 46.4146 79.6214C46.8928 79.4585 47.3333 79.2013 47.7102 78.8651C48.0872 78.5289 48.3928 78.1205 48.609 77.6641C48.8252 77.2077 48.9476 76.7126 48.9689 76.208L49.5613 71.5874C46.4943 72.0907 43.3658 72.0907 40.2988 71.5874ZM80.2714 78.4923H87.6787V25.4982C87.6787 19.1724 85.1272 14.8056 80.2714 12.7686V78.4923ZM2.16177 78.4923H9.58869V12.7686C4.73939 14.8056 2.21384 19.1724 2.21384 25.4982L2.16177 78.4923ZM23.1602 12.1829L28.9013 56.4824C29.7214 62.8928 32.7482 67.0383 37.8904 68.8475L32.5855 26.1685C31.6091 18.6453 28.5172 14.0507 23.1602 12.1829ZM66.6998 12.1829C61.3428 14.0507 58.2379 18.6453 57.2746 26.175L51.9697 68.8215C57.1184 67.0123 60.1386 62.8667 60.9588 56.4564L66.6998 12.1829ZM11.6391 9.91816C13.4649 9.47425 15.3383 9.25569 17.2174 9.26737C18.3925 9.25496 19.567 9.32455 20.7323 9.47562L20.3808 6.918C19.9317 3.78118 18.3825 2.19324 15.7854 2.19324C13.1882 2.19324 11.6391 4.03499 11.6391 6.9961V9.91816ZM72.6427 9.26737C74.5217 9.25569 76.3951 9.47425 78.221 9.91816V7.02213C78.221 4.06102 76.6327 2.21927 74.0747 2.21927C71.5166 2.21927 69.9283 3.80721 69.4792 6.94403L69.1277 9.50165C70.2931 9.35058 71.4676 9.28099 72.6427 9.2934V9.26737Z" fill="#2D2D2D"/>
<path d="M121.461 80.5097H110.167V1.49033H121.461V80.5097ZM112.218 78.4597H119.41V3.54032H112.218V78.4597Z" fill="#2D2D2D"/>
<path d="M194.728 81.8308C189.826 81.8308 188.707 77.3598 188.342 75.8891L187.496 72.1405C180.16 70.8389 175.682 66.1076 173.827 57.7189L163.198 11.5646C161.982 11.4124 160.758 11.3385 159.533 11.3433C157.499 11.3104 155.471 11.5846 153.518 12.1568V80.4902H142.01V25.1727C142.01 18.014 145.265 13.0354 151.468 10.7056V7.02208C151.468 2.92208 153.955 0.16922 157.658 0.16922C160.854 0.16922 163.204 2.1997 163.946 5.59684L164.89 9.76192C172.05 11.0635 176.346 15.6581 178.344 24.177L189.182 70.3378C190.402 70.4898 191.63 70.5637 192.86 70.5591C194.886 70.5746 196.905 70.3274 198.868 69.8237V1.49033H210.376V58.5714C210.376 64.4286 206.945 69.0232 200.918 71.2814V74.8413C200.918 79.1625 198.549 81.8308 194.728 81.8308ZM189.677 72.4659L190.328 75.414C191.102 78.5118 192.378 79.7808 194.721 79.7808C197.325 79.7808 198.861 77.9911 198.861 74.8673V71.9257C196.891 72.3764 194.874 72.5948 192.853 72.5765C191.792 72.579 190.732 72.5269 189.677 72.4203V72.4529V72.4659ZM144.061 78.4597H151.468V12.9053C146.547 15.0333 144.061 19.1529 144.061 25.1662V78.4597ZM165.391 11.9486L175.806 57.2633C177.42 64.5197 181.013 68.5872 186.975 69.9473L176.353 24.6325C174.621 17.2721 171.217 13.2957 165.391 11.9486ZM200.918 3.54033V69.1013C205.709 67.0708 208.325 63.3808 208.325 58.5975V3.54033H200.918ZM153.518 9.9962C155.483 9.48994 157.505 9.24486 159.533 9.26732C160.594 9.26483 161.654 9.31696 162.709 9.4235V9.39097L161.941 6.01335C161.629 4.5816 160.639 2.19319 157.658 2.19319C154.677 2.19319 153.518 4.67271 153.518 6.99605V9.9962Z" fill="#2D2D2D"/>
<path d="M289.397 80.5097H277.355L271.418 56.977H238.04L232.214 80.5097H220.172L235.703 23.357C237.499 16.8295 241.607 12.3651 247.608 10.4127L248.682 5.92221C249.333 3.4492 250.635 0.188721 254.742 0.188721C258.849 0.188721 260.158 3.44269 260.796 5.90269L261.857 10.4127C267.845 12.3651 271.952 16.849 273.755 23.37L289.397 80.5097ZM278.95 78.4597H286.708L271.776 23.8971C270.299 18.5411 267.096 14.7405 262.462 12.8336L271.692 49.2846H237.909L247.022 12.8011C242.381 14.7535 239.179 18.5346 237.701 23.8646L222.873 78.4597H230.632L236.458 54.927H272.994L278.95 78.4597ZM240.546 47.2216H269.043L260.164 12.0136C256.606 11.109 252.878 11.109 249.32 12.0136L240.546 47.2216ZM249.886 9.70983V9.78793C253.092 9.13059 256.398 9.13059 259.604 9.78793V9.70332L258.81 6.36475C258.036 3.37761 256.897 2.20618 254.749 2.20618C252.601 2.20618 251.461 3.37761 250.68 6.38428L249.886 9.70332V9.70983Z" fill="#2D2D2D"/>
</g>
<defs>
<clipPath id="clip0_2_92">
<rect width="289" height="82" fill="white"/>
</clipPath>
</defs>
</svg>
