<?xml version="1.0" standalone="no"?>
<!DOCTYPE svg PUBLIC "-//W3C//DTD SVG 20010904//EN"
 "http://www.w3.org/TR/2001/REC-SVG-20010904/DTD/svg10.dtd">
<svg version="1.0" xmlns="http://www.w3.org/2000/svg"
 width="512.000000pt" height="512.000000pt" viewBox="0 0 512.000000 512.000000"
 preserveAspectRatio="xMidYMid meet">

<g transform="translate(0.000000,512.000000) scale(0.100000,-0.100000)"
fill="#000000" stroke="none">
<path d="M2905 5106 c-126 -32 -246 -128 -298 -238 -84 -177 -49 -377 87 -513
260 -259 696 -118 758 244 53 311 -240 584 -547 507z m190 -203 c92 -31 165
-134 165 -233 0 -132 -118 -250 -250 -250 -60 0 -130 30 -175 75 -98 98 -98
252 0 350 69 70 164 91 260 58z"/>
<path d="M1895 4637 c-66 -22 -98 -43 -146 -94 -59 -63 -84 -128 -84 -218 0
-92 25 -156 87 -221 68 -72 131 -98 233 -98 102 0 165 26 233 98 62 65 87 129
87 221 0 45 -7 88 -19 120 -26 67 -103 147 -169 175 -63 28 -166 35 -222 17z
m146 -202 c37 -20 69 -70 69 -110 0 -62 -63 -125 -125 -125 -61 0 -125 63
-125 123 0 63 62 127 123 127 15 0 41 -7 58 -15z"/>
<path d="M2063 3782 c-243 -85 -273 -424 -48 -543 l45 -24 0 -197 0 -196 -617
-1059 c-339 -582 -625 -1075 -636 -1095 -87 -171 -49 -387 92 -528 63 -64 158
-115 240 -130 34 -6 550 -10 1430 -10 1505 0 1432 -3 1545 58 68 36 157 126
190 190 73 144 74 289 1 432 -18 36 -306 533 -639 1105 l-606 1040 0 195 1
195 51 30 c208 120 189 427 -31 529 -44 20 -62 21 -506 23 -421 3 -464 1 -512
-15z m942 -194 c29 -13 55 -55 55 -88 0 -33 -26 -75 -55 -88 -19 -9 -141 -12
-445 -12 -304 0 -426 3 -445 12 -69 31 -71 137 -4 174 33 18 855 20 894 2z
m-143 -610 l3 -223 634 -1085 c349 -597 641 -1105 649 -1129 44 -129 -47 -292
-186 -331 -51 -14 -2753 -14 -2804 0 -136 38 -229 200 -188 326 7 21 300 532
652 1135 l638 1097 0 216 0 216 299 0 300 0 3 -222z"/>
<path d="M2020 1533 c-81 -10 -169 -36 -236 -68 l-72 -35 -227 -390 c-156
-268 -229 -403 -232 -430 -12 -87 25 -156 102 -191 36 -17 73 -19 408 -19 399
0 411 1 435 55 7 14 12 35 12 46 0 28 -26 75 -47 85 -10 5 -171 11 -359 14
l-341 5 196 337 c196 337 196 337 243 358 26 11 84 26 129 32 113 16 232 0
511 -67 357 -87 493 -101 646 -69 42 10 85 17 95 18 13 1 63 -77 196 -304
l177 -305 -340 -5 c-188 -3 -349 -9 -359 -14 -21 -10 -47 -57 -47 -85 0 -11 5
-32 12 -46 24 -54 36 -55 435 -55 335 0 372 2 408 19 77 35 114 104 102 191
-5 43 -422 772 -467 817 -21 21 -31 24 -70 20 -25 -2 -73 -16 -107 -31 -128
-55 -254 -47 -594 35 -113 27 -243 56 -289 64 -90 16 -264 26 -320 18z"/>
<path d="M2511 586 c-87 -48 -50 -186 49 -186 51 0 100 49 100 99 0 75 -83
124 -149 87z"/>
</g>
</svg>
