<svg width="177" height="50" viewBox="0 0 177 50" fill="none" xmlns="http://www.w3.org/2000/svg">
<g clip-path="url(#clip0)">
<path d="M27.3633 49.8969C26.4427 49.9236 25.5468 49.597 24.8591 48.9839C24.1714 48.3707 23.744 47.5176 23.6644 46.5992L23.2481 43.3334C19.2836 42.2024 16.9644 39.2659 16.3618 34.6032L12.7937 7.08734C12.0283 6.96405 11.2536 6.90828 10.4785 6.92067C9.33115 6.91127 8.18796 7.05948 7.08089 7.36115V49.0913H0.0795898V15.5477C0.0795898 10.9961 2.12131 7.78178 5.84001 6.44448V4.28178C5.84001 1.78179 7.35841 0.103213 9.61421 0.103213C11.87 0.103213 13.2853 1.50797 13.6501 4.07147L13.9276 6.07544C17.9991 7.21432 20.3778 10.4881 21.0835 15.8016L24.382 42.3254C26.3526 42.7064 28.3779 42.7064 30.3485 42.3254L33.647 15.8056C34.3368 10.4881 36.7433 7.21432 40.8029 6.06353L41.0804 4.05956C41.4452 1.50798 42.8803 0.0913086 45.1163 0.0913086C47.3523 0.0913086 48.8905 1.76988 48.8905 4.26988V6.43258C52.6092 7.76988 54.6509 10.9842 54.6509 15.5358V49.0794H47.6417V7.35718C46.5346 7.05551 45.3914 6.90731 44.2441 6.9167C43.469 6.90431 42.6942 6.96008 41.9288 7.08337L38.3608 34.6032C37.7701 39.1826 35.3953 42.1905 31.4745 43.3334L31.082 46.6032C31.0208 47.5319 30.5958 48.3989 29.8994 49.0156C29.2031 49.6324 28.2916 49.9491 27.3633 49.8969ZM24.5445 43.6508L24.9053 46.4643C24.9431 47.0813 25.2224 47.6584 25.6825 48.0707C26.1426 48.483 26.7465 48.6971 27.3633 48.6667C27.6701 48.6887 27.9783 48.6489 28.2695 48.5496C28.5607 48.4503 28.829 48.2935 29.0586 48.0885C29.2882 47.8835 29.4743 47.6345 29.606 47.3562C29.7377 47.0779 29.8122 46.776 29.8252 46.4683L30.186 43.6508C28.318 43.9577 26.4125 43.9577 24.5445 43.6508ZM48.8905 47.8611H53.4021V15.5477C53.4021 11.6905 51.848 9.02781 48.8905 7.78575V47.8611ZM1.31651 47.8611H5.84001V7.78575C2.88646 9.02781 1.34823 11.6905 1.34823 15.5477L1.31651 47.8611ZM14.106 7.42861L17.6027 34.4405C18.1022 38.3492 19.9457 40.877 23.0776 41.9802L19.8466 15.9564C19.2519 11.3691 17.3688 8.5675 14.106 7.42861ZM40.6245 7.42861C37.3617 8.5675 35.4707 11.3691 34.8839 15.9604L31.6529 41.9643C34.7888 40.8611 36.6283 38.3334 37.1278 34.4246L40.6245 7.42861ZM7.08882 6.04766C8.20091 5.77698 9.34193 5.64371 10.4864 5.65083C11.2021 5.64327 11.9174 5.6857 12.6272 5.77782L12.4131 4.21829C12.1396 2.30559 11.196 1.33734 9.61421 1.33734C8.03237 1.33734 7.08882 2.46036 7.08882 4.26591V6.04766ZM44.2441 5.65083C45.3886 5.64371 46.5296 5.77698 47.6417 6.04766V4.28178C47.6417 2.47623 46.6743 1.35321 45.1163 1.35321C43.5582 1.35321 42.5909 2.32147 42.3174 4.23416L42.1033 5.79369C42.8131 5.70157 43.5284 5.65914 44.2441 5.6667V5.65083Z" fill="white"/>
<path d="M73.9778 49.0912H67.0994V0.908691H73.9778V49.0912ZM68.3482 47.8412H72.729V2.15869H68.3482V47.8412Z" fill="white"/>
<path d="M118.602 49.8968C115.617 49.8968 114.935 47.1706 114.713 46.2738L114.198 43.9881C109.73 43.1944 107.002 40.3095 105.872 35.1944L99.3981 7.05156C98.6578 6.95875 97.9122 6.91368 97.1661 6.91664C95.927 6.89654 94.6921 7.06377 93.5029 7.41267V49.0793H86.4937V15.3492C86.4937 10.9841 88.4759 7.94839 92.2541 6.52775V4.28172C92.2541 1.78172 93.7685 0.103149 96.0243 0.103149C97.9709 0.103149 99.4021 1.34124 99.854 3.41267L100.429 5.95236C104.79 6.74601 107.406 9.54759 108.623 14.742L115.224 42.8889C115.967 42.9816 116.716 43.0266 117.464 43.0238C118.698 43.0333 119.928 42.8826 121.124 42.5754V0.908706H128.133V35.7143C128.133 39.2857 126.043 42.0873 122.372 43.4643V45.6349C122.372 48.2698 120.929 49.8968 118.602 49.8968ZM115.526 44.1865L115.922 45.9841C116.394 47.873 117.171 48.6468 118.598 48.6468C120.184 48.6468 121.12 47.5555 121.12 45.6508V43.8571C119.919 44.1319 118.691 44.2651 117.46 44.2539C116.814 44.2555 116.169 44.2237 115.526 44.1587V44.1785V44.1865ZM87.7425 47.8412H92.2541V7.86902C89.2569 9.16664 87.7425 11.6785 87.7425 15.3452V47.8412ZM100.734 7.28569L107.077 34.9166C108.061 39.3412 110.249 41.8214 113.88 42.6508L107.41 15.0198C106.356 10.5317 104.282 8.10712 100.734 7.28569ZM122.372 2.1587V42.1349C125.29 40.8968 126.884 38.6468 126.884 35.7301V2.1587H122.372ZM93.5029 6.09521C94.6991 5.78652 95.9308 5.63708 97.1661 5.65077C97.8122 5.64925 98.4579 5.68104 99.1008 5.74601V5.72617L98.633 3.66664C98.4427 2.79363 97.84 1.33728 96.0243 1.33728C94.2086 1.33728 93.5029 2.84918 93.5029 4.26585V6.09521Z" fill="white"/>
<path d="M176.262 49.0913H168.928L165.312 34.7421H144.982L141.434 49.0913H134.099L143.559 14.2421C144.653 10.2619 147.154 7.53971 150.81 6.34924L151.464 3.61114C151.86 2.10321 152.653 0.115112 155.155 0.115112C157.656 0.115112 158.453 2.09924 158.842 3.59924L159.488 6.34924C163.135 7.53971 165.637 10.2738 166.735 14.25L176.262 49.0913ZM169.899 47.8413H174.624L165.53 14.5715C164.63 11.3056 162.679 8.98813 159.857 7.82543L165.478 30.0516H144.903L150.453 7.80559C147.626 8.99606 145.676 11.3016 144.776 14.5516L135.745 47.8413H140.47L144.019 33.4921H166.271L169.899 47.8413ZM146.508 28.7937H163.865L158.457 7.32543C156.29 6.77382 154.02 6.77382 151.852 7.32543L146.508 28.7937ZM152.197 5.92067V5.96829C154.15 5.56747 156.164 5.56747 158.116 5.96829V5.9167L157.633 3.88098C157.161 2.05956 156.467 1.34527 155.159 1.34527C153.851 1.34527 153.157 2.05956 152.681 3.89289L152.197 5.9167V5.92067Z" fill="white"/>
</g>
<defs>
<clipPath id="clip0">
<rect width="176.02" height="50" fill="white"/>
</clipPath>
</defs>
</svg>
